HIERARCHY
ROOT Hips
{
	OFFSET 0.000000 0.000000 0.000000
	CHANNELS 6 Xposition Yposition Zposition Zrotation Yrotation Xrotation 
	JOINT LowerBack
	{
		OFFSET 0.000000 0.000000 0.000000
		CHANNELS 3 Zrotation Yrotation Xrotation
		JOINT Spine
		{
			OFFSET 0.028270 2.035590 -0.193380
			CHANNELS 3 Zrotation Yrotation Xrotation
			JOINT Spine1
			{
				OFFSET 0.056720 2.048850 -0.042750
				CHANNELS 3 Zrotation Yrotation Xrotation
				JOINT Neck
				{
					OFFSET 0.000000 0.000000 0.000000
					CHANNELS 3 Zrotation Yrotation Xrotation
					JOINT Neck1
					{
						OFFSET -0.054170 1.746240 0.172020
						CHANNELS 3 Zrotation Yrotation Xrotation
						JOINT Head
						{
							OFFSET 0.104070 1.761360 -0.123970
							CHANNELS 3 Zrotation Yrotation Xrotation
							End Site
							{
								OFFSET 0.000000 0.000000 0.000000
							}
						}
					}
				}
				JOINT LeftShoulder
				{
					OFFSET 0.000000 0.000000 0.000000
					CHANNELS 3 Zrotation Yrotation Xrotation
					JOINT LeftArm
					{
						OFFSET 3.362410 1.200890 -0.311210
						CHANNELS 3 Zrotation Yrotation Xrotation
						JOINT LeftForeArm
						{
							OFFSET 4.983000 -0.000000 -0.000000
							CHANNELS 3 Zrotation Yrotation Xrotation
							JOINT LeftHand
							{
								OFFSET 3.483560 -0.000000 -0.000000
								CHANNELS 3 Zrotation Yrotation Xrotation
								JOINT LeftFingerBase
								{
									OFFSET 0.000000 0.000000 0.000000
									CHANNELS 3 Zrotation Yrotation Xrotation
									JOINT LeftHandIndex1
									{
										OFFSET 0.715260 -0.000000 -0.000000
										CHANNELS 3 Zrotation Yrotation Xrotation
										End Site
										{
											OFFSET 0.000000 0.000000 0.000000
										}
									}
								}
								JOINT LThumb
								{
									OFFSET 0.000000 0.000000 0.000000
									CHANNELS 3 Zrotation Yrotation Xrotation
									End Site
									{
										OFFSET 0.000000 0.000000 0.000000
									}
								}
							}
						}
					}
				}
				JOINT RightShoulder
				{
					OFFSET 0.000000 0.000000 0.000000
					CHANNELS 3 Zrotation Yrotation Xrotation
					JOINT RightArm
					{
						OFFSET -3.136600 1.374050 -0.404650
						CHANNELS 3 Zrotation Yrotation Xrotation
						JOINT RightForeArm
						{
							OFFSET -5.241900 -0.000000 -0.000000
							CHANNELS 3 Zrotation Yrotation Xrotation
							JOINT RightHand
							{
								OFFSET -3.444170 -0.000000 -0.000000
								CHANNELS 3 Zrotation Yrotation Xrotation
								JOINT RightFingerBase
								{
									OFFSET 0.000000 0.000000 0.000000
									CHANNELS 3 Zrotation Yrotation Xrotation
									JOINT RightHandIndex1
									{
										OFFSET -0.622530 -0.000000 -0.000000
										CHANNELS 3 Zrotation Yrotation Xrotation
										End Site
										{
											OFFSET 0.000000 0.000000 0.000000
										}
									}
								}
								JOINT RThumb
								{
									OFFSET 0.000000 0.000000 0.000000
									CHANNELS 3 Zrotation Yrotation Xrotation
									End Site
									{
										OFFSET 0.000000 0.000000 0.000000
									}
								}
							}
						}
					}
				}
			}
		}
	}
}
}
MOTION
Frames: 6
Frame Time: 0.008333
-9.300793 18.218772 -1.856212 19.115622 79.837108 39.544075 -4.924000 2.490239 -6.517190 -1.120363 2.782457 -4.309573 -2.453741 2.540862 -0.130066 1.038288 -5.208073 -8.917993 0.315127 0.041559 -0.281746 0.000000 0.000000 0.000000 -0.724198 18.652328 2.891803 -37.230275 23.234659 -13.245548 -4.636406 -13.085622 -0.026602 11.078877 3.796114 0.375895 -0.319207 0.029521 -0.000000 0.000000 0.000000 0.000000 0.000000 0.000000 0.000000 -10.137970 0.908843 -1.522802 7.629592 26.321531 -49.040285 -0.599760 71.571427 -0.218174 -19.563251 4.126256 -0.839104 0.181406 -0.690772 -0.000000 0.000000 0.000000 0.000000 0.000000 0.000000 0.000000 
-9.081452 18.318054 -1.873766 20.100602 80.124722 40.455001 -5.023896 2.637716 -6.477334 -1.092881 2.949015 -4.286286 -2.234926 2.703359 -0.072439 0.541616 -5.523514 -8.892581 0.544235 0.059655 -0.271804 0.000000 0.000000 0.000000 -0.410215 18.913402 2.844972 -36.202067 24.382073 -12.992620 -4.641082 -13.497432 -0.027617 10.724958 3.858937 0.370609 -0.331975 0.029590 -0.000000 0.000000 0.000000 0.000000 0.000000 0.000000 0.000000 -11.492182 0.623177 -1.573365 6.654840 25.566818 -50.448114 -0.578952 71.828978 -0.224058 -19.768062 4.164903 -0.857405 0.189721 -0.703012 -0.000000 0.000000 0.000000 0.000000 0.000000 0.000000 0.000000 
-8.862608 18.403817 -1.894338 20.648459 80.405608 40.900142 -5.044541 2.780127 -6.425508 -1.045823 3.105437 -4.256067 -2.009130 2.857380 -0.003392 0.047372 -5.832577 -8.863344 0.777662 0.078078 -0.261710 0.000000 0.000000 0.000000 -0.080410 19.229799 2.809444 -35.264744 25.511939 -12.714685 -4.640281 -13.986458 -0.028651 10.351160 3.907708 0.362924 -0.344019 0.030431 -0.000000 0.000000 0.000000 0.000000 0.000000 0.000000 0.000000 -12.874344 0.347404 -1.635516 5.783758 24.899627 -51.741647 -0.558647 72.090391 -0.229976 -19.978070 4.169838 -0.870014 0.198404 -0.714653 -0.000000 0.000000 0.000000 0.000000 0.000000 0.000000 0.000000 
-8.644040 18.475561 -1.917579 20.813422 80.680821 40.934542 -5.002224 2.915921 -6.366365 -0.983954 3.251052 -4.220595 -1.780923 3.002009 0.075992 -0.430781 -6.137577 -8.832301 1.010763 0.096457 -0.252034 0.000000 0.000000 0.000000 0.264372 19.597614 2.783974 -34.399189 26.610418 -12.443443 -4.632913 -14.509698 -0.029660 9.997025 3.931418 0.353240 -0.355294 0.032230 -0.000000 0.000000 0.000000 0.000000 0.000000 0.000000 0.000000 -14.248797 0.079324 -1.706074 4.974911 24.324983 -52.923756 -0.537494 72.363772 -0.235674 -20.177203 4.153917 -0.878325 0.207016 -0.725536 -0.000000 0.000000 0.000000 0.000000 0.000000 0.000000 0.000000 
-8.425859 18.533347 -1.944085 20.467773 80.959339 40.431035 -4.873408 3.048561 -6.295299 -0.903670 3.387477 -4.179436 -1.553839 3.139089 0.163640 -0.891209 -6.446281 -8.802539 1.239346 0.114475 -0.243675 0.000000 0.000000 0.000000 0.596873 20.021456 2.765957 -33.583323 27.651760 -12.198337 -4.618319 -15.015102 -0.030586 9.705194 3.918219 0.342256 -0.365953 0.035035 -0.000000 0.000000 0.000000 0.000000 0.000000 0.000000 0.000000 -15.596476 -0.187297 -1.784215 4.188730 23.856739 -54.004699 -0.515234 72.657986 -0.240913 -20.351843 4.132233 -0.884340 0.215257 -0.735573 0.000000 0.000000 0.000000 0.000000 0.000000 0.000000 0.000000 
-8.207871 18.577274 -1.971837 19.953121 81.227970 39.731310 -4.731787 3.168864 -6.219977 -0.822052 3.510144 -4.136961 -1.335054 3.263196 0.254962 -1.304728 -6.743396 -8.771067 1.456201 0.131489 -0.235610 0.000000 0.000000 0.000000 0.952617 20.466361 2.754637 -32.818938 28.646229 -12.050866 -4.594682 -15.455623 -0.031423 9.512085 3.858776 0.330470 -0.376172 0.039108 -0.000000 0.000000 0.000000 0.000000 0.000000 0.000000 0.000000 -16.854770 -0.442026 -1.864022 3.397399 23.474209 -54.983165 -0.487655 72.999123 -0.245534 -20.499801 4.112388 -0.889255 0.222708 -0.744452 0.000000 0.000000 0.000000 0.000000 0.000000 0.000000 0.000000 
